<?xml version="1.0" encoding="utf-8" standalone="no"?>
<!DOCTYPE svg PUBLIC "-//W3C//DTD SVG 1.1//EN"
  "http://www.w3.org/Graphics/SVG/1.1/DTD/svg11.dtd">
<svg xmlns:xlink="http://www.w3.org/1999/xlink" width="576pt" height="360pt" viewBox="0 0 576 360" xmlns="http://www.w3.org/2000/svg" version="1.1">
 <metadata>
  <rdf:RDF xmlns:dc="http://purl.org/dc/elements/1.1/" xmlns:cc="http://creativecommons.org/ns#" xmlns:rdf="http://www.w3.org/1999/02/22-rdf-syntax-ns#">
   <cc:Work>
    <dc:type rdf:resource="http://purl.org/dc/dcmitype/StillImage"/>
    <dc:date>2025-07-17T19:29:43.064044</dc:date>
    <dc:format>image/svg+xml</dc:format>
    <dc:creator>
     <cc:Agent>
      <dc:title>Matplotlib v3.10.1, https://matplotlib.org/</dc:title>
     </cc:Agent>
    </dc:creator>
   </cc:Work>
  </rdf:RDF>
 </metadata>
 <defs>
  <style type="text/css">*{stroke-linejoin: round; stroke-linecap: butt}</style>
 </defs>
 <g id="figure_1">
  <g id="patch_1">
   <path d="M 0 360 
L 576 360 
L 576 0 
L 0 0 
z
" style="fill: #ffffff"/>
  </g>
  <g id="axes_1">
   <g id="patch_2">
    <path d="M 60.32 318.04 
L 565.2 318.04 
L 565.2 26.88 
L 60.32 26.88 
z
" style="fill: #ffffff"/>
   </g>
   <g id="patch_3">
    <path d="M 83.269091 318.04 
L 86.911804 318.04 
L 86.911804 318.04 
L 83.269091 318.04 
z
" clip-path="url(#pdb94da6a7d)" style="fill: #808080"/>
   </g>
   <g id="patch_4">
    <path d="M 87.822482 318.04 
L 91.465195 318.04 
L 91.465195 318.04 
L 87.822482 318.04 
z
" clip-path="url(#pdb94da6a7d)" style="fill: #808080"/>
   </g>
   <g id="patch_5">
    <path d="M 92.375873 318.04 
L 96.018586 318.04 
L 96.018586 318.04 
L 92.375873 318.04 
z
" clip-path="url(#pdb94da6a7d)" style="fill: #808080"/>
   </g>
   <g id="patch_6">
    <path d="M 96.929264 318.04 
L 100.571977 318.04 
L 100.571977 318.04 
L 96.929264 318.04 
z
" clip-path="url(#pdb94da6a7d)" style="fill: #808080"/>
   </g>
   <g id="patch_7">
    <path d="M 101.482655 318.04 
L 105.125368 318.04 
L 105.125368 318.04 
L 101.482655 318.04 
z
" clip-path="url(#pdb94da6a7d)" style="fill: #808080"/>
   </g>
   <g id="patch_8">
    <path d="M 106.036046 318.04 
L 109.678759 318.04 
L 109.678759 318.04 
L 106.036046 318.04 
z
" clip-path="url(#pdb94da6a7d)" style="fill: #808080"/>
   </g>
   <g id="patch_9">
    <path d="M 110.589437 318.04 
L 114.23215 318.04 
L 114.23215 318.04 
L 110.589437 318.04 
z
" clip-path="url(#pdb94da6a7d)" style="fill: #808080"/>
   </g>
   <g id="patch_10">
    <path d="M 115.142828 318.04 
L 118.785541 318.04 
L 118.785541 318.04 
L 115.142828 318.04 
z
" clip-path="url(#pdb94da6a7d)" style="fill: #808080"/>
   </g>
   <g id="patch_11">
    <path d="M 119.696219 318.04 
L 123.338932 318.04 
L 123.338932 304.175238 
L 119.696219 304.175238 
z
" clip-path="url(#pdb94da6a7d)" style="fill: #808080"/>
   </g>
   <g id="patch_12">
    <path d="M 124.24961 318.04 
L 127.892323 318.04 
L 127.892323 318.04 
L 124.24961 318.04 
z
" clip-path="url(#pdb94da6a7d)" style="fill: #808080"/>
   </g>
   <g id="patch_13">
    <path d="M 128.803001 318.04 
L 132.445714 318.04 
L 132.445714 276.445714 
L 128.803001 276.445714 
z
" clip-path="url(#pdb94da6a7d)" style="fill: #808080"/>
   </g>
   <g id="patch_14">
    <path d="M 133.356392 318.04 
L 136.999105 318.04 
L 136.999105 220.986667 
L 133.356392 220.986667 
z
" clip-path="url(#pdb94da6a7d)" style="fill: #808080"/>
   </g>
   <g id="patch_15">
    <path d="M 137.909784 318.04 
L 141.552496 318.04 
L 141.552496 207.121905 
L 137.909784 207.121905 
z
" clip-path="url(#pdb94da6a7d)" style="fill: #808080"/>
   </g>
   <g id="patch_16">
    <path d="M 142.463175 318.04 
L 146.105887 318.04 
L 146.105887 262.580952 
L 142.463175 262.580952 
z
" clip-path="url(#pdb94da6a7d)" style="fill: #808080"/>
   </g>
   <g id="patch_17">
    <path d="M 147.016566 318.04 
L 150.659278 318.04 
L 150.659278 82.339048 
L 147.016566 82.339048 
z
" clip-path="url(#pdb94da6a7d)" style="fill: #808080"/>
   </g>
   <g id="patch_18">
    <path d="M 151.569957 318.04 
L 155.21267 318.04 
L 155.21267 193.257143 
L 151.569957 193.257143 
z
" clip-path="url(#pdb94da6a7d)" style="fill: #808080"/>
   </g>
   <g id="patch_19">
    <path d="M 156.123348 318.04 
L 159.766061 318.04 
L 159.766061 110.068571 
L 156.123348 110.068571 
z
" clip-path="url(#pdb94da6a7d)" style="fill: #808080"/>
   </g>
   <g id="patch_20">
    <path d="M 160.676739 318.04 
L 164.319452 318.04 
L 164.319452 207.121905 
L 160.676739 207.121905 
z
" clip-path="url(#pdb94da6a7d)" style="fill: #808080"/>
   </g>
   <g id="patch_21">
    <path d="M 165.23013 318.04 
L 168.872843 318.04 
L 168.872843 110.068571 
L 165.23013 110.068571 
z
" clip-path="url(#pdb94da6a7d)" style="fill: #808080"/>
   </g>
   <g id="patch_22">
    <path d="M 169.783521 318.04 
L 173.426234 318.04 
L 173.426234 54.609524 
L 169.783521 54.609524 
z
" clip-path="url(#pdb94da6a7d)" style="fill: #808080"/>
   </g>
   <g id="patch_23">
    <path d="M 174.336912 318.04 
L 177.979625 318.04 
L 177.979625 96.20381 
L 174.336912 96.20381 
z
" clip-path="url(#pdb94da6a7d)" style="fill: #808080"/>
   </g>
   <g id="patch_24">
    <path d="M 178.890303 318.04 
L 182.533016 318.04 
L 182.533016 40.744762 
L 178.890303 40.744762 
z
" clip-path="url(#pdb94da6a7d)" style="fill: #808080"/>
   </g>
   <g id="patch_25">
    <path d="M 183.443694 318.04 
L 187.086407 318.04 
L 187.086407 110.068571 
L 183.443694 110.068571 
z
" clip-path="url(#pdb94da6a7d)" style="fill: #808080"/>
   </g>
   <g id="patch_26">
    <path d="M 187.997085 318.04 
L 191.639798 318.04 
L 191.639798 207.121905 
L 187.997085 207.121905 
z
" clip-path="url(#pdb94da6a7d)" style="fill: #808080"/>
   </g>
   <g id="patch_27">
    <path d="M 192.550476 318.04 
L 196.193189 318.04 
L 196.193189 193.257143 
L 192.550476 193.257143 
z
" clip-path="url(#pdb94da6a7d)" style="fill: #808080"/>
   </g>
   <g id="patch_28">
    <path d="M 197.103867 318.04 
L 200.74658 318.04 
L 200.74658 193.257143 
L 197.103867 193.257143 
z
" clip-path="url(#pdb94da6a7d)" style="fill: #808080"/>
   </g>
   <g id="patch_29">
    <path d="M 201.657258 318.04 
L 205.299971 318.04 
L 205.299971 220.986667 
L 201.657258 220.986667 
z
" clip-path="url(#pdb94da6a7d)" style="fill: #808080"/>
   </g>
   <g id="patch_30">
    <path d="M 206.210649 318.04 
L 209.853362 318.04 
L 209.853362 248.71619 
L 206.210649 248.71619 
z
" clip-path="url(#pdb94da6a7d)" style="fill: #808080"/>
   </g>
   <g id="patch_31">
    <path d="M 210.76404 318.04 
L 214.406753 318.04 
L 214.406753 193.257143 
L 210.76404 193.257143 
z
" clip-path="url(#pdb94da6a7d)" style="fill: #808080"/>
   </g>
   <g id="patch_32">
    <path d="M 215.317431 318.04 
L 218.960144 318.04 
L 218.960144 179.392381 
L 215.317431 179.392381 
z
" clip-path="url(#pdb94da6a7d)" style="fill: #808080"/>
   </g>
   <g id="patch_33">
    <path d="M 219.870823 318.04 
L 223.513535 318.04 
L 223.513535 220.986667 
L 219.870823 220.986667 
z
" clip-path="url(#pdb94da6a7d)" style="fill: #808080"/>
   </g>
   <g id="patch_34">
    <path d="M 224.424214 318.04 
L 228.066926 318.04 
L 228.066926 193.257143 
L 224.424214 193.257143 
z
" clip-path="url(#pdb94da6a7d)" style="fill: #808080"/>
   </g>
   <g id="patch_35">
    <path d="M 228.977605 318.04 
L 232.620317 318.04 
L 232.620317 248.71619 
L 228.977605 248.71619 
z
" clip-path="url(#pdb94da6a7d)" style="fill: #808080"/>
   </g>
   <g id="patch_36">
    <path d="M 233.530996 318.04 
L 237.173709 318.04 
L 237.173709 165.527619 
L 233.530996 165.527619 
z
" clip-path="url(#pdb94da6a7d)" style="fill: #808080"/>
   </g>
   <g id="patch_37">
    <path d="M 238.084387 318.04 
L 241.7271 318.04 
L 241.7271 96.20381 
L 238.084387 96.20381 
z
" clip-path="url(#pdb94da6a7d)" style="fill: #808080"/>
   </g>
   <g id="patch_38">
    <path d="M 242.637778 318.04 
L 246.280491 318.04 
L 246.280491 179.392381 
L 242.637778 179.392381 
z
" clip-path="url(#pdb94da6a7d)" style="fill: #808080"/>
   </g>
   <g id="patch_39">
    <path d="M 247.191169 318.04 
L 250.833882 318.04 
L 250.833882 151.662857 
L 247.191169 151.662857 
z
" clip-path="url(#pdb94da6a7d)" style="fill: #808080"/>
   </g>
   <g id="patch_40">
    <path d="M 251.74456 318.04 
L 255.387273 318.04 
L 255.387273 137.798095 
L 251.74456 137.798095 
z
" clip-path="url(#pdb94da6a7d)" style="fill: #808080"/>
   </g>
   <g id="patch_41">
    <path d="M 256.297951 318.04 
L 259.940664 318.04 
L 259.940664 220.986667 
L 256.297951 220.986667 
z
" clip-path="url(#pdb94da6a7d)" style="fill: #808080"/>
   </g>
   <g id="patch_42">
    <path d="M 260.851342 318.04 
L 264.494055 318.04 
L 264.494055 262.580952 
L 260.851342 262.580952 
z
" clip-path="url(#pdb94da6a7d)" style="fill: #808080"/>
   </g>
   <g id="patch_43">
    <path d="M 265.404733 318.04 
L 269.047446 318.04 
L 269.047446 234.851429 
L 265.404733 234.851429 
z
" clip-path="url(#pdb94da6a7d)" style="fill: #808080"/>
   </g>
   <g id="patch_44">
    <path d="M 269.958124 318.04 
L 273.600837 318.04 
L 273.600837 193.257143 
L 269.958124 193.257143 
z
" clip-path="url(#pdb94da6a7d)" style="fill: #808080"/>
   </g>
   <g id="patch_45">
    <path d="M 274.511515 318.04 
L 278.154228 318.04 
L 278.154228 234.851429 
L 274.511515 234.851429 
z
" clip-path="url(#pdb94da6a7d)" style="fill: #808080"/>
   </g>
   <g id="patch_46">
    <path d="M 279.064906 318.04 
L 282.707619 318.04 
L 282.707619 304.175238 
L 279.064906 304.175238 
z
" clip-path="url(#pdb94da6a7d)" style="fill: #808080"/>
   </g>
   <g id="patch_47">
    <path d="M 283.618297 318.04 
L 287.26101 318.04 
L 287.26101 193.257143 
L 283.618297 193.257143 
z
" clip-path="url(#pdb94da6a7d)" style="fill: #808080"/>
   </g>
   <g id="patch_48">
    <path d="M 288.171688 318.04 
L 291.814401 318.04 
L 291.814401 262.580952 
L 288.171688 262.580952 
z
" clip-path="url(#pdb94da6a7d)" style="fill: #808080"/>
   </g>
   <g id="patch_49">
    <path d="M 292.725079 318.04 
L 296.367792 318.04 
L 296.367792 248.71619 
L 292.725079 248.71619 
z
" clip-path="url(#pdb94da6a7d)" style="fill: #808080"/>
   </g>
   <g id="patch_50">
    <path d="M 297.27847 318.04 
L 300.921183 318.04 
L 300.921183 262.580952 
L 297.27847 262.580952 
z
" clip-path="url(#pdb94da6a7d)" style="fill: #808080"/>
   </g>
   <g id="patch_51">
    <path d="M 301.831861 318.04 
L 305.474574 318.04 
L 305.474574 234.851429 
L 301.831861 234.851429 
z
" clip-path="url(#pdb94da6a7d)" style="fill: #808080"/>
   </g>
   <g id="patch_52">
    <path d="M 306.385253 318.04 
L 310.027965 318.04 
L 310.027965 262.580952 
L 306.385253 262.580952 
z
" clip-path="url(#pdb94da6a7d)" style="fill: #808080"/>
   </g>
   <g id="patch_53">
    <path d="M 310.938644 318.04 
L 314.581356 318.04 
L 314.581356 262.580952 
L 310.938644 262.580952 
z
" clip-path="url(#pdb94da6a7d)" style="fill: #808080"/>
   </g>
   <g id="patch_54">
    <path d="M 315.492035 318.04 
L 319.134747 318.04 
L 319.134747 207.121905 
L 315.492035 207.121905 
z
" clip-path="url(#pdb94da6a7d)" style="fill: #808080"/>
   </g>
   <g id="patch_55">
    <path d="M 320.045426 318.04 
L 323.688139 318.04 
L 323.688139 276.445714 
L 320.045426 276.445714 
z
" clip-path="url(#pdb94da6a7d)" style="fill: #808080"/>
   </g>
   <g id="patch_56">
    <path d="M 324.598817 318.04 
L 328.24153 318.04 
L 328.24153 137.798095 
L 324.598817 137.798095 
z
" clip-path="url(#pdb94da6a7d)" style="fill: #808080"/>
   </g>
   <g id="patch_57">
    <path d="M 329.152208 318.04 
L 332.794921 318.04 
L 332.794921 262.580952 
L 329.152208 262.580952 
z
" clip-path="url(#pdb94da6a7d)" style="fill: #808080"/>
   </g>
   <g id="patch_58">
    <path d="M 333.705599 318.04 
L 337.348312 318.04 
L 337.348312 318.04 
L 333.705599 318.04 
z
" clip-path="url(#pdb94da6a7d)" style="fill: #808080"/>
   </g>
   <g id="patch_59">
    <path d="M 338.25899 318.04 
L 341.901703 318.04 
L 341.901703 262.580952 
L 338.25899 262.580952 
z
" clip-path="url(#pdb94da6a7d)" style="fill: #808080"/>
   </g>
   <g id="patch_60">
    <path d="M 342.812381 318.04 
L 346.455094 318.04 
L 346.455094 290.310476 
L 342.812381 290.310476 
z
" clip-path="url(#pdb94da6a7d)" style="fill: #808080"/>
   </g>
   <g id="patch_61">
    <path d="M 347.365772 318.04 
L 351.008485 318.04 
L 351.008485 234.851429 
L 347.365772 234.851429 
z
" clip-path="url(#pdb94da6a7d)" style="fill: #808080"/>
   </g>
   <g id="patch_62">
    <path d="M 351.919163 318.04 
L 355.561876 318.04 
L 355.561876 276.445714 
L 351.919163 276.445714 
z
" clip-path="url(#pdb94da6a7d)" style="fill: #808080"/>
   </g>
   <g id="patch_63">
    <path d="M 356.472554 318.04 
L 360.115267 318.04 
L 360.115267 248.71619 
L 356.472554 248.71619 
z
" clip-path="url(#pdb94da6a7d)" style="fill: #808080"/>
   </g>
   <g id="patch_64">
    <path d="M 361.025945 318.04 
L 364.668658 318.04 
L 364.668658 304.175238 
L 361.025945 304.175238 
z
" clip-path="url(#pdb94da6a7d)" style="fill: #808080"/>
   </g>
   <g id="patch_65">
    <path d="M 365.579336 318.04 
L 369.222049 318.04 
L 369.222049 276.445714 
L 365.579336 276.445714 
z
" clip-path="url(#pdb94da6a7d)" style="fill: #808080"/>
   </g>
   <g id="patch_66">
    <path d="M 370.132727 318.04 
L 373.77544 318.04 
L 373.77544 234.851429 
L 370.132727 234.851429 
z
" clip-path="url(#pdb94da6a7d)" style="fill: #808080"/>
   </g>
   <g id="patch_67">
    <path d="M 374.686118 318.04 
L 378.328831 318.04 
L 378.328831 276.445714 
L 374.686118 276.445714 
z
" clip-path="url(#pdb94da6a7d)" style="fill: #808080"/>
   </g>
   <g id="patch_68">
    <path d="M 379.239509 318.04 
L 382.882222 318.04 
L 382.882222 318.04 
L 379.239509 318.04 
z
" clip-path="url(#pdb94da6a7d)" style="fill: #808080"/>
   </g>
   <g id="patch_69">
    <path d="M 383.7929 318.04 
L 387.435613 318.04 
L 387.435613 304.175238 
L 383.7929 304.175238 
z
" clip-path="url(#pdb94da6a7d)" style="fill: #808080"/>
   </g>
   <g id="patch_70">
    <path d="M 388.346291 318.04 
L 391.989004 318.04 
L 391.989004 276.445714 
L 388.346291 276.445714 
z
" clip-path="url(#pdb94da6a7d)" style="fill: #808080"/>
   </g>
   <g id="patch_71">
    <path d="M 392.899683 318.04 
L 396.542395 318.04 
L 396.542395 304.175238 
L 392.899683 304.175238 
z
" clip-path="url(#pdb94da6a7d)" style="fill: #808080"/>
   </g>
   <g id="patch_72">
    <path d="M 397.453074 318.04 
L 401.095786 318.04 
L 401.095786 276.445714 
L 397.453074 276.445714 
z
" clip-path="url(#pdb94da6a7d)" style="fill: #808080"/>
   </g>
   <g id="patch_73">
    <path d="M 402.006465 318.04 
L 405.649177 318.04 
L 405.649177 304.175238 
L 402.006465 304.175238 
z
" clip-path="url(#pdb94da6a7d)" style="fill: #808080"/>
   </g>
   <g id="patch_74">
    <path d="M 406.559856 318.04 
L 410.202569 318.04 
L 410.202569 276.445714 
L 406.559856 276.445714 
z
" clip-path="url(#pdb94da6a7d)" style="fill: #808080"/>
   </g>
   <g id="patch_75">
    <path d="M 411.113247 318.04 
L 414.75596 318.04 
L 414.75596 276.445714 
L 411.113247 276.445714 
z
" clip-path="url(#pdb94da6a7d)" style="fill: #808080"/>
   </g>
   <g id="patch_76">
    <path d="M 415.666638 318.04 
L 419.309351 318.04 
L 419.309351 276.445714 
L 415.666638 276.445714 
z
" clip-path="url(#pdb94da6a7d)" style="fill: #808080"/>
   </g>
   <g id="patch_77">
    <path d="M 420.220029 318.04 
L 423.862742 318.04 
L 423.862742 290.310476 
L 420.220029 290.310476 
z
" clip-path="url(#pdb94da6a7d)" style="fill: #808080"/>
   </g>
   <g id="patch_78">
    <path d="M 424.77342 318.04 
L 428.416133 318.04 
L 428.416133 290.310476 
L 424.77342 290.310476 
z
" clip-path="url(#pdb94da6a7d)" style="fill: #808080"/>
   </g>
   <g id="patch_79">
    <path d="M 429.326811 318.04 
L 432.969524 318.04 
L 432.969524 304.175238 
L 429.326811 304.175238 
z
" clip-path="url(#pdb94da6a7d)" style="fill: #808080"/>
   </g>
   <g id="patch_80">
    <path d="M 433.880202 318.04 
L 437.522915 318.04 
L 437.522915 304.175238 
L 433.880202 304.175238 
z
" clip-path="url(#pdb94da6a7d)" style="fill: #808080"/>
   </g>
   <g id="patch_81">
    <path d="M 438.433593 318.04 
L 442.076306 318.04 
L 442.076306 318.04 
L 438.433593 318.04 
z
" clip-path="url(#pdb94da6a7d)" style="fill: #808080"/>
   </g>
   <g id="patch_82">
    <path d="M 442.986984 318.04 
L 446.629697 318.04 
L 446.629697 304.175238 
L 442.986984 304.175238 
z
" clip-path="url(#pdb94da6a7d)" style="fill: #808080"/>
   </g>
   <g id="patch_83">
    <path d="M 447.540375 318.04 
L 451.183088 318.04 
L 451.183088 304.175238 
L 447.540375 304.175238 
z
" clip-path="url(#pdb94da6a7d)" style="fill: #808080"/>
   </g>
   <g id="patch_84">
    <path d="M 452.093766 318.04 
L 455.736479 318.04 
L 455.736479 290.310476 
L 452.093766 290.310476 
z
" clip-path="url(#pdb94da6a7d)" style="fill: #808080"/>
   </g>
   <g id="patch_85">
    <path d="M 456.647157 318.04 
L 460.28987 318.04 
L 460.28987 262.580952 
L 456.647157 262.580952 
z
" clip-path="url(#pdb94da6a7d)" style="fill: #808080"/>
   </g>
   <g id="patch_86">
    <path d="M 461.200548 318.04 
L 464.843261 318.04 
L 464.843261 290.310476 
L 461.200548 290.310476 
z
" clip-path="url(#pdb94da6a7d)" style="fill: #808080"/>
   </g>
   <g id="patch_87">
    <path d="M 465.753939 318.04 
L 469.396652 318.04 
L 469.396652 304.175238 
L 465.753939 304.175238 
z
" clip-path="url(#pdb94da6a7d)" style="fill: #808080"/>
   </g>
   <g id="patch_88">
    <path d="M 470.30733 318.04 
L 473.950043 318.04 
L 473.950043 290.310476 
L 470.30733 290.310476 
z
" clip-path="url(#pdb94da6a7d)" style="fill: #808080"/>
   </g>
   <g id="patch_89">
    <path d="M 474.860722 318.04 
L 478.503434 318.04 
L 478.503434 304.175238 
L 474.860722 304.175238 
z
" clip-path="url(#pdb94da6a7d)" style="fill: #808080"/>
   </g>
   <g id="patch_90">
    <path d="M 479.414113 318.04 
L 483.056825 318.04 
L 483.056825 318.04 
L 479.414113 318.04 
z
" clip-path="url(#pdb94da6a7d)" style="fill: #808080"/>
   </g>
   <g id="patch_91">
    <path d="M 483.967504 318.04 
L 487.610216 318.04 
L 487.610216 304.175238 
L 483.967504 304.175238 
z
" clip-path="url(#pdb94da6a7d)" style="fill: #808080"/>
   </g>
   <g id="patch_92">
    <path d="M 488.520895 318.04 
L 492.163608 318.04 
L 492.163608 290.310476 
L 488.520895 290.310476 
z
" clip-path="url(#pdb94da6a7d)" style="fill: #808080"/>
   </g>
   <g id="patch_93">
    <path d="M 493.074286 318.04 
L 496.716999 318.04 
L 496.716999 304.175238 
L 493.074286 304.175238 
z
" clip-path="url(#pdb94da6a7d)" style="fill: #808080"/>
   </g>
   <g id="patch_94">
    <path d="M 497.627677 318.04 
L 501.27039 318.04 
L 501.27039 290.310476 
L 497.627677 290.310476 
z
" clip-path="url(#pdb94da6a7d)" style="fill: #808080"/>
   </g>
   <g id="patch_95">
    <path d="M 502.181068 318.04 
L 505.823781 318.04 
L 505.823781 318.04 
L 502.181068 318.04 
z
" clip-path="url(#pdb94da6a7d)" style="fill: #808080"/>
   </g>
   <g id="patch_96">
    <path d="M 506.734459 318.04 
L 510.377172 318.04 
L 510.377172 318.04 
L 506.734459 318.04 
z
" clip-path="url(#pdb94da6a7d)" style="fill: #808080"/>
   </g>
   <g id="patch_97">
    <path d="M 511.28785 318.04 
L 514.930563 318.04 
L 514.930563 304.175238 
L 511.28785 304.175238 
z
" clip-path="url(#pdb94da6a7d)" style="fill: #808080"/>
   </g>
   <g id="patch_98">
    <path d="M 515.841241 318.04 
L 519.483954 318.04 
L 519.483954 304.175238 
L 515.841241 304.175238 
z
" clip-path="url(#pdb94da6a7d)" style="fill: #808080"/>
   </g>
   <g id="patch_99">
    <path d="M 520.394632 318.04 
L 524.037345 318.04 
L 524.037345 290.310476 
L 520.394632 290.310476 
z
" clip-path="url(#pdb94da6a7d)" style="fill: #808080"/>
   </g>
   <g id="patch_100">
    <path d="M 524.948023 318.04 
L 528.590736 318.04 
L 528.590736 276.445714 
L 524.948023 276.445714 
z
" clip-path="url(#pdb94da6a7d)" style="fill: #808080"/>
   </g>
   <g id="patch_101">
    <path d="M 529.501414 318.04 
L 533.144127 318.04 
L 533.144127 304.175238 
L 529.501414 304.175238 
z
" clip-path="url(#pdb94da6a7d)" style="fill: #808080"/>
   </g>
   <g id="patch_102">
    <path d="M 534.054805 318.04 
L 537.697518 318.04 
L 537.697518 318.04 
L 534.054805 318.04 
z
" clip-path="url(#pdb94da6a7d)" style="fill: #808080"/>
   </g>
   <g id="patch_103">
    <path d="M 538.608196 318.04 
L 542.250909 318.04 
L 542.250909 318.04 
L 538.608196 318.04 
z
" clip-path="url(#pdb94da6a7d)" style="fill: #808080"/>
   </g>
   <g id="matplotlib.axis_1">
    <g id="xtick_1">
     <g id="line2d_1">
      <defs>
       <path id="m82f7fabc71" d="M 0 0 
L 0 3.5 
" style="stroke: #000000; stroke-width: 0.8"/>
      </defs>
      <g>
       <use xlink:href="#m82f7fabc71" x="83.269091" y="318.04" style="stroke: #000000; stroke-width: 0.8"/>
      </g>
     </g>
     <g id="text_1">
      <!-- 0 -->
      <g transform="translate(80.087841 332.638438) scale(0.1 -0.1)">
       <defs>
        <path id="DejaVuSans-30" d="M 2034 4250 
Q 1547 4250 1301 3770 
Q 1056 3291 1056 2328 
Q 1056 1369 1301 889 
Q 1547 409 2034 409 
Q 2525 409 2770 889 
Q 3016 1369 3016 2328 
Q 3016 3291 2770 3770 
Q 2525 4250 2034 4250 
z
M 2034 4750 
Q 2819 4750 3233 4129 
Q 3647 3509 3647 2328 
Q 3647 1150 3233 529 
Q 2819 -91 2034 -91 
Q 1250 -91 836 529 
Q 422 1150 422 2328 
Q 422 3509 836 4129 
Q 1250 4750 2034 4750 
z
" transform="scale(0.015625)"/>
       </defs>
       <use xlink:href="#DejaVuSans-30"/>
      </g>
     </g>
    </g>
    <g id="xtick_2">
     <g id="line2d_2">
      <g>
       <use xlink:href="#m82f7fabc71" x="174.336912" y="318.04" style="stroke: #000000; stroke-width: 0.8"/>
      </g>
     </g>
     <g id="text_2">
      <!-- 20 -->
      <g transform="translate(167.974412 332.638438) scale(0.1 -0.1)">
       <defs>
        <path id="DejaVuSans-32" d="M 1228 531 
L 3431 531 
L 3431 0 
L 469 0 
L 469 531 
Q 828 903 1448 1529 
Q 2069 2156 2228 2338 
Q 2531 2678 2651 2914 
Q 2772 3150 2772 3378 
Q 2772 3750 2511 3984 
Q 2250 4219 1831 4219 
Q 1534 4219 1204 4116 
Q 875 4013 500 3803 
L 500 4441 
Q 881 4594 1212 4672 
Q 1544 4750 1819 4750 
Q 2544 4750 2975 4387 
Q 3406 4025 3406 3419 
Q 3406 3131 3298 2873 
Q 3191 2616 2906 2266 
Q 2828 2175 2409 1742 
Q 1991 1309 1228 531 
z
" transform="scale(0.015625)"/>
       </defs>
       <use xlink:href="#DejaVuSans-32"/>
       <use xlink:href="#DejaVuSans-30" transform="translate(63.623047 0)"/>
      </g>
     </g>
    </g>
    <g id="xtick_3">
     <g id="line2d_3">
      <g>
       <use xlink:href="#m82f7fabc71" x="265.404733" y="318.04" style="stroke: #000000; stroke-width: 0.8"/>
      </g>
     </g>
     <g id="text_3">
      <!-- 40 -->
      <g transform="translate(259.042233 332.638438) scale(0.1 -0.1)">
       <defs>
        <path id="DejaVuSans-34" d="M 2419 4116 
L 825 1625 
L 2419 1625 
L 2419 4116 
z
M 2253 4666 
L 3047 4666 
L 3047 1625 
L 3713 1625 
L 3713 1100 
L 3047 1100 
L 3047 0 
L 2419 0 
L 2419 1100 
L 313 1100 
L 313 1709 
L 2253 4666 
z
" transform="scale(0.015625)"/>
       </defs>
       <use xlink:href="#DejaVuSans-34"/>
       <use xlink:href="#DejaVuSans-30" transform="translate(63.623047 0)"/>
      </g>
     </g>
    </g>
    <g id="xtick_4">
     <g id="line2d_4">
      <g>
       <use xlink:href="#m82f7fabc71" x="356.472554" y="318.04" style="stroke: #000000; stroke-width: 0.8"/>
      </g>
     </g>
     <g id="text_4">
      <!-- 60 -->
      <g transform="translate(350.110054 332.638438) scale(0.1 -0.1)">
       <defs>
        <path id="DejaVuSans-36" d="M 2113 2584 
Q 1688 2584 1439 2293 
Q 1191 2003 1191 1497 
Q 1191 994 1439 701 
Q 1688 409 2113 409 
Q 2538 409 2786 701 
Q 3034 994 3034 1497 
Q 3034 2003 2786 2293 
Q 2538 2584 2113 2584 
z
M 3366 4563 
L 3366 3988 
Q 3128 4100 2886 4159 
Q 2644 4219 2406 4219 
Q 1781 4219 1451 3797 
Q 1122 3375 1075 2522 
Q 1259 2794 1537 2939 
Q 1816 3084 2150 3084 
Q 2853 3084 3261 2657 
Q 3669 2231 3669 1497 
Q 3669 778 3244 343 
Q 2819 -91 2113 -91 
Q 1303 -91 875 529 
Q 447 1150 447 2328 
Q 447 3434 972 4092 
Q 1497 4750 2381 4750 
Q 2619 4750 2861 4703 
Q 3103 4656 3366 4563 
z
" transform="scale(0.015625)"/>
       </defs>
       <use xlink:href="#DejaVuSans-36"/>
       <use xlink:href="#DejaVuSans-30" transform="translate(63.623047 0)"/>
      </g>
     </g>
    </g>
    <g id="xtick_5">
     <g id="line2d_5">
      <g>
       <use xlink:href="#m82f7fabc71" x="447.540375" y="318.04" style="stroke: #000000; stroke-width: 0.8"/>
      </g>
     </g>
     <g id="text_5">
      <!-- 80 -->
      <g transform="translate(441.177875 332.638438) scale(0.1 -0.1)">
       <defs>
        <path id="DejaVuSans-38" d="M 2034 2216 
Q 1584 2216 1326 1975 
Q 1069 1734 1069 1313 
Q 1069 891 1326 650 
Q 1584 409 2034 409 
Q 2484 409 2743 651 
Q 3003 894 3003 1313 
Q 3003 1734 2745 1975 
Q 2488 2216 2034 2216 
z
M 1403 2484 
Q 997 2584 770 2862 
Q 544 3141 544 3541 
Q 544 4100 942 4425 
Q 1341 4750 2034 4750 
Q 2731 4750 3128 4425 
Q 3525 4100 3525 3541 
Q 3525 3141 3298 2862 
Q 3072 2584 2669 2484 
Q 3125 2378 3379 2068 
Q 3634 1759 3634 1313 
Q 3634 634 3220 271 
Q 2806 -91 2034 -91 
Q 1263 -91 848 271 
Q 434 634 434 1313 
Q 434 1759 690 2068 
Q 947 2378 1403 2484 
z
M 1172 3481 
Q 1172 3119 1398 2916 
Q 1625 2713 2034 2713 
Q 2441 2713 2670 2916 
Q 2900 3119 2900 3481 
Q 2900 3844 2670 4047 
Q 2441 4250 2034 4250 
Q 1625 4250 1398 4047 
Q 1172 3844 1172 3481 
z
" transform="scale(0.015625)"/>
       </defs>
       <use xlink:href="#DejaVuSans-38"/>
       <use xlink:href="#DejaVuSans-30" transform="translate(63.623047 0)"/>
      </g>
     </g>
    </g>
    <g id="xtick_6">
     <g id="line2d_6">
      <g>
       <use xlink:href="#m82f7fabc71" x="538.608196" y="318.04" style="stroke: #000000; stroke-width: 0.8"/>
      </g>
     </g>
     <g id="text_6">
      <!-- 100 -->
      <g transform="translate(529.064446 332.638438) scale(0.1 -0.1)">
       <defs>
        <path id="DejaVuSans-31" d="M 794 531 
L 1825 531 
L 1825 4091 
L 703 3866 
L 703 4441 
L 1819 4666 
L 2450 4666 
L 2450 531 
L 3481 531 
L 3481 0 
L 794 0 
L 794 531 
z
" transform="scale(0.015625)"/>
       </defs>
       <use xlink:href="#DejaVuSans-31"/>
       <use xlink:href="#DejaVuSans-30" transform="translate(63.623047 0)"/>
       <use xlink:href="#DejaVuSans-30" transform="translate(127.246094 0)"/>
      </g>
     </g>
    </g>
    <g id="text_7">
     <!-- Time step of brake event (binned every 10 steps) -->
     <g transform="translate(188.889687 346.316563) scale(0.1 -0.1)">
      <defs>
       <path id="DejaVuSans-54" d="M -19 4666 
L 3928 4666 
L 3928 4134 
L 2272 4134 
L 2272 0 
L 1638 0 
L 1638 4134 
L -19 4134 
L -19 4666 
z
" transform="scale(0.015625)"/>
       <path id="DejaVuSans-69" d="M 603 3500 
L 1178 3500 
L 1178 0 
L 603 0 
L 603 3500 
z
M 603 4863 
L 1178 4863 
L 1178 4134 
L 603 4134 
L 603 4863 
z
" transform="scale(0.015625)"/>
       <path id="DejaVuSans-6d" d="M 3328 2828 
Q 3544 3216 3844 3400 
Q 4144 3584 4550 3584 
Q 5097 3584 5394 3201 
Q 5691 2819 5691 2113 
L 5691 0 
L 5113 0 
L 5113 2094 
Q 5113 2597 4934 2840 
Q 4756 3084 4391 3084 
Q 3944 3084 3684 2787 
Q 3425 2491 3425 1978 
L 3425 0 
L 2847 0 
L 2847 2094 
Q 2847 2600 2669 2842 
Q 2491 3084 2119 3084 
Q 1678 3084 1418 2786 
Q 1159 2488 1159 1978 
L 1159 0 
L 581 0 
L 581 3500 
L 1159 3500 
L 1159 2956 
Q 1356 3278 1631 3431 
Q 1906 3584 2284 3584 
Q 2666 3584 2933 3390 
Q 3200 3197 3328 2828 
z
" transform="scale(0.015625)"/>
       <path id="DejaVuSans-65" d="M 3597 1894 
L 3597 1613 
L 953 1613 
Q 991 1019 1311 708 
Q 1631 397 2203 397 
Q 2534 397 2845 478 
Q 3156 559 3463 722 
L 3463 178 
Q 3153 47 2828 -22 
Q 2503 -91 2169 -91 
Q 1331 -91 842 396 
Q 353 884 353 1716 
Q 353 2575 817 3079 
Q 1281 3584 2069 3584 
Q 2775 3584 3186 3129 
Q 3597 2675 3597 1894 
z
M 3022 2063 
Q 3016 2534 2758 2815 
Q 2500 3097 2075 3097 
Q 1594 3097 1305 2825 
Q 1016 2553 972 2059 
L 3022 2063 
z
" transform="scale(0.015625)"/>
       <path id="DejaVuSans-20" transform="scale(0.015625)"/>
       <path id="DejaVuSans-73" d="M 2834 3397 
L 2834 2853 
Q 2591 2978 2328 3040 
Q 2066 3103 1784 3103 
Q 1356 3103 1142 2972 
Q 928 2841 928 2578 
Q 928 2378 1081 2264 
Q 1234 2150 1697 2047 
L 1894 2003 
Q 2506 1872 2764 1633 
Q 3022 1394 3022 966 
Q 3022 478 2636 193 
Q 2250 -91 1575 -91 
Q 1294 -91 989 -36 
Q 684 19 347 128 
L 347 722 
Q 666 556 975 473 
Q 1284 391 1588 391 
Q 1994 391 2212 530 
Q 2431 669 2431 922 
Q 2431 1156 2273 1281 
Q 2116 1406 1581 1522 
L 1381 1569 
Q 847 1681 609 1914 
Q 372 2147 372 2553 
Q 372 3047 722 3315 
Q 1072 3584 1716 3584 
Q 2034 3584 2315 3537 
Q 2597 3491 2834 3397 
z
" transform="scale(0.015625)"/>
       <path id="DejaVuSans-74" d="M 1172 4494 
L 1172 3500 
L 2356 3500 
L 2356 3053 
L 1172 3053 
L 1172 1153 
Q 1172 725 1289 603 
Q 1406 481 1766 481 
L 2356 481 
L 2356 0 
L 1766 0 
Q 1100 0 847 248 
Q 594 497 594 1153 
L 594 3053 
L 172 3053 
L 172 3500 
L 594 3500 
L 594 4494 
L 1172 4494 
z
" transform="scale(0.015625)"/>
       <path id="DejaVuSans-70" d="M 1159 525 
L 1159 -1331 
L 581 -1331 
L 581 3500 
L 1159 3500 
L 1159 2969 
Q 1341 3281 1617 3432 
Q 1894 3584 2278 3584 
Q 2916 3584 3314 3078 
Q 3713 2572 3713 1747 
Q 3713 922 3314 415 
Q 2916 -91 2278 -91 
Q 1894 -91 1617 61 
Q 1341 213 1159 525 
z
M 3116 1747 
Q 3116 2381 2855 2742 
Q 2594 3103 2138 3103 
Q 1681 3103 1420 2742 
Q 1159 2381 1159 1747 
Q 1159 1113 1420 752 
Q 1681 391 2138 391 
Q 2594 391 2855 752 
Q 3116 1113 3116 1747 
z
" transform="scale(0.015625)"/>
       <path id="DejaVuSans-6f" d="M 1959 3097 
Q 1497 3097 1228 2736 
Q 959 2375 959 1747 
Q 959 1119 1226 758 
Q 1494 397 1959 397 
Q 2419 397 2687 759 
Q 2956 1122 2956 1747 
Q 2956 2369 2687 2733 
Q 2419 3097 1959 3097 
z
M 1959 3584 
Q 2709 3584 3137 3096 
Q 3566 2609 3566 1747 
Q 3566 888 3137 398 
Q 2709 -91 1959 -91 
Q 1206 -91 779 398 
Q 353 888 353 1747 
Q 353 2609 779 3096 
Q 1206 3584 1959 3584 
z
" transform="scale(0.015625)"/>
       <path id="DejaVuSans-66" d="M 2375 4863 
L 2375 4384 
L 1825 4384 
Q 1516 4384 1395 4259 
Q 1275 4134 1275 3809 
L 1275 3500 
L 2222 3500 
L 2222 3053 
L 1275 3053 
L 1275 0 
L 697 0 
L 697 3053 
L 147 3053 
L 147 3500 
L 697 3500 
L 697 3744 
Q 697 4328 969 4595 
Q 1241 4863 1831 4863 
L 2375 4863 
z
" transform="scale(0.015625)"/>
       <path id="DejaVuSans-62" d="M 3116 1747 
Q 3116 2381 2855 2742 
Q 2594 3103 2138 3103 
Q 1681 3103 1420 2742 
Q 1159 2381 1159 1747 
Q 1159 1113 1420 752 
Q 1681 391 2138 391 
Q 2594 391 2855 752 
Q 3116 1113 3116 1747 
z
M 1159 2969 
Q 1341 3281 1617 3432 
Q 1894 3584 2278 3584 
Q 2916 3584 3314 3078 
Q 3713 2572 3713 1747 
Q 3713 922 3314 415 
Q 2916 -91 2278 -91 
Q 1894 -91 1617 61 
Q 1341 213 1159 525 
L 1159 0 
L 581 0 
L 581 4863 
L 1159 4863 
L 1159 2969 
z
" transform="scale(0.015625)"/>
       <path id="DejaVuSans-72" d="M 2631 2963 
Q 2534 3019 2420 3045 
Q 2306 3072 2169 3072 
Q 1681 3072 1420 2755 
Q 1159 2438 1159 1844 
L 1159 0 
L 581 0 
L 581 3500 
L 1159 3500 
L 1159 2956 
Q 1341 3275 1631 3429 
Q 1922 3584 2338 3584 
Q 2397 3584 2469 3576 
Q 2541 3569 2628 3553 
L 2631 2963 
z
" transform="scale(0.015625)"/>
       <path id="DejaVuSans-61" d="M 2194 1759 
Q 1497 1759 1228 1600 
Q 959 1441 959 1056 
Q 959 750 1161 570 
Q 1363 391 1709 391 
Q 2188 391 2477 730 
Q 2766 1069 2766 1631 
L 2766 1759 
L 2194 1759 
z
M 3341 1997 
L 3341 0 
L 2766 0 
L 2766 531 
Q 2569 213 2275 61 
Q 1981 -91 1556 -91 
Q 1019 -91 701 211 
Q 384 513 384 1019 
Q 384 1609 779 1909 
Q 1175 2209 1959 2209 
L 2766 2209 
L 2766 2266 
Q 2766 2663 2505 2880 
Q 2244 3097 1772 3097 
Q 1472 3097 1187 3025 
Q 903 2953 641 2809 
L 641 3341 
Q 956 3463 1253 3523 
Q 1550 3584 1831 3584 
Q 2591 3584 2966 3190 
Q 3341 2797 3341 1997 
z
" transform="scale(0.015625)"/>
       <path id="DejaVuSans-6b" d="M 581 4863 
L 1159 4863 
L 1159 1991 
L 2875 3500 
L 3609 3500 
L 1753 1863 
L 3688 0 
L 2938 0 
L 1159 1709 
L 1159 0 
L 581 0 
L 581 4863 
z
" transform="scale(0.015625)"/>
       <path id="DejaVuSans-76" d="M 191 3500 
L 800 3500 
L 1894 563 
L 2988 3500 
L 3597 3500 
L 2284 0 
L 1503 0 
L 191 3500 
z
" transform="scale(0.015625)"/>
       <path id="DejaVuSans-6e" d="M 3513 2113 
L 3513 0 
L 2938 0 
L 2938 2094 
Q 2938 2591 2744 2837 
Q 2550 3084 2163 3084 
Q 1697 3084 1428 2787 
Q 1159 2491 1159 1978 
L 1159 0 
L 581 0 
L 581 3500 
L 1159 3500 
L 1159 2956 
Q 1366 3272 1645 3428 
Q 1925 3584 2291 3584 
Q 2894 3584 3203 3211 
Q 3513 2838 3513 2113 
z
" transform="scale(0.015625)"/>
       <path id="DejaVuSans-28" d="M 1984 4856 
Q 1566 4138 1362 3434 
Q 1159 2731 1159 2009 
Q 1159 1288 1364 580 
Q 1569 -128 1984 -844 
L 1484 -844 
Q 1016 -109 783 600 
Q 550 1309 550 2009 
Q 550 2706 781 3412 
Q 1013 4119 1484 4856 
L 1984 4856 
z
" transform="scale(0.015625)"/>
       <path id="DejaVuSans-64" d="M 2906 2969 
L 2906 4863 
L 3481 4863 
L 3481 0 
L 2906 0 
L 2906 525 
Q 2725 213 2448 61 
Q 2172 -91 1784 -91 
Q 1150 -91 751 415 
Q 353 922 353 1747 
Q 353 2572 751 3078 
Q 1150 3584 1784 3584 
Q 2172 3584 2448 3432 
Q 2725 3281 2906 2969 
z
M 947 1747 
Q 947 1113 1208 752 
Q 1469 391 1925 391 
Q 2381 391 2643 752 
Q 2906 1113 2906 1747 
Q 2906 2381 2643 2742 
Q 2381 3103 1925 3103 
Q 1469 3103 1208 2742 
Q 947 2381 947 1747 
z
" transform="scale(0.015625)"/>
       <path id="DejaVuSans-79" d="M 2059 -325 
Q 1816 -950 1584 -1140 
Q 1353 -1331 966 -1331 
L 506 -1331 
L 506 -850 
L 844 -850 
Q 1081 -850 1212 -737 
Q 1344 -625 1503 -206 
L 1606 56 
L 191 3500 
L 800 3500 
L 1894 763 
L 2988 3500 
L 3597 3500 
L 2059 -325 
z
" transform="scale(0.015625)"/>
       <path id="DejaVuSans-29" d="M 513 4856 
L 1013 4856 
Q 1481 4119 1714 3412 
Q 1947 2706 1947 2009 
Q 1947 1309 1714 600 
Q 1481 -109 1013 -844 
L 513 -844 
Q 928 -128 1133 580 
Q 1338 1288 1338 2009 
Q 1338 2731 1133 3434 
Q 928 4138 513 4856 
z
" transform="scale(0.015625)"/>
      </defs>
      <use xlink:href="#DejaVuSans-54"/>
      <use xlink:href="#DejaVuSans-69" transform="translate(57.958984 0)"/>
      <use xlink:href="#DejaVuSans-6d" transform="translate(85.742188 0)"/>
      <use xlink:href="#DejaVuSans-65" transform="translate(183.154297 0)"/>
      <use xlink:href="#DejaVuSans-20" transform="translate(244.677734 0)"/>
      <use xlink:href="#DejaVuSans-73" transform="translate(276.464844 0)"/>
      <use xlink:href="#DejaVuSans-74" transform="translate(328.564453 0)"/>
      <use xlink:href="#DejaVuSans-65" transform="translate(367.773438 0)"/>
      <use xlink:href="#DejaVuSans-70" transform="translate(429.296875 0)"/>
      <use xlink:href="#DejaVuSans-20" transform="translate(492.773438 0)"/>
      <use xlink:href="#DejaVuSans-6f" transform="translate(524.560547 0)"/>
      <use xlink:href="#DejaVuSans-66" transform="translate(585.742188 0)"/>
      <use xlink:href="#DejaVuSans-20" transform="translate(620.947266 0)"/>
      <use xlink:href="#DejaVuSans-62" transform="translate(652.734375 0)"/>
      <use xlink:href="#DejaVuSans-72" transform="translate(716.210938 0)"/>
      <use xlink:href="#DejaVuSans-61" transform="translate(757.324219 0)"/>
      <use xlink:href="#DejaVuSans-6b" transform="translate(818.603516 0)"/>
      <use xlink:href="#DejaVuSans-65" transform="translate(872.888672 0)"/>
      <use xlink:href="#DejaVuSans-20" transform="translate(934.412109 0)"/>
      <use xlink:href="#DejaVuSans-65" transform="translate(966.199219 0)"/>
      <use xlink:href="#DejaVuSans-76" transform="translate(1027.722656 0)"/>
      <use xlink:href="#DejaVuSans-65" transform="translate(1086.902344 0)"/>
      <use xlink:href="#DejaVuSans-6e" transform="translate(1148.425781 0)"/>
      <use xlink:href="#DejaVuSans-74" transform="translate(1211.804688 0)"/>
      <use xlink:href="#DejaVuSans-20" transform="translate(1251.013672 0)"/>
      <use xlink:href="#DejaVuSans-28" transform="translate(1282.800781 0)"/>
      <use xlink:href="#DejaVuSans-62" transform="translate(1321.814453 0)"/>
      <use xlink:href="#DejaVuSans-69" transform="translate(1385.291016 0)"/>
      <use xlink:href="#DejaVuSans-6e" transform="translate(1413.074219 0)"/>
      <use xlink:href="#DejaVuSans-6e" transform="translate(1476.453125 0)"/>
      <use xlink:href="#DejaVuSans-65" transform="translate(1539.832031 0)"/>
      <use xlink:href="#DejaVuSans-64" transform="translate(1601.355469 0)"/>
      <use xlink:href="#DejaVuSans-20" transform="translate(1664.832031 0)"/>
      <use xlink:href="#DejaVuSans-65" transform="translate(1696.619141 0)"/>
      <use xlink:href="#DejaVuSans-76" transform="translate(1758.142578 0)"/>
      <use xlink:href="#DejaVuSans-65" transform="translate(1817.322266 0)"/>
      <use xlink:href="#DejaVuSans-72" transform="translate(1878.845703 0)"/>
      <use xlink:href="#DejaVuSans-79" transform="translate(1919.958984 0)"/>
      <use xlink:href="#DejaVuSans-20" transform="translate(1979.138672 0)"/>
      <use xlink:href="#DejaVuSans-31" transform="translate(2010.925781 0)"/>
      <use xlink:href="#DejaVuSans-30" transform="translate(2074.548828 0)"/>
      <use xlink:href="#DejaVuSans-20" transform="translate(2138.171875 0)"/>
      <use xlink:href="#DejaVuSans-73" transform="translate(2169.958984 0)"/>
      <use xlink:href="#DejaVuSans-74" transform="translate(2222.058594 0)"/>
      <use xlink:href="#DejaVuSans-65" transform="translate(2261.267578 0)"/>
      <use xlink:href="#DejaVuSans-70" transform="translate(2322.791016 0)"/>
      <use xlink:href="#DejaVuSans-73" transform="translate(2386.267578 0)"/>
      <use xlink:href="#DejaVuSans-29" transform="translate(2438.367188 0)"/>
     </g>
    </g>
   </g>
   <g id="matplotlib.axis_2">
    <g id="ytick_1">
     <g id="line2d_7">
      <defs>
       <path id="me0de6aee82" d="M 0 0 
L -3.5 0 
" style="stroke: #000000; stroke-width: 0.8"/>
      </defs>
      <g>
       <use xlink:href="#me0de6aee82" x="60.32" y="318.04" style="stroke: #000000; stroke-width: 0.8"/>
      </g>
     </g>
     <g id="text_8">
      <!-- 0.000 -->
      <g transform="translate(24.691875 321.839219) scale(0.1 -0.1)">
       <defs>
        <path id="DejaVuSans-2e" d="M 684 794 
L 1344 794 
L 1344 0 
L 684 0 
L 684 794 
z
" transform="scale(0.015625)"/>
       </defs>
       <use xlink:href="#DejaVuSans-30"/>
       <use xlink:href="#DejaVuSans-2e" transform="translate(63.623047 0)"/>
       <use xlink:href="#DejaVuSans-30" transform="translate(95.410156 0)"/>
       <use xlink:href="#DejaVuSans-30" transform="translate(159.033203 0)"/>
       <use xlink:href="#DejaVuSans-30" transform="translate(222.65625 0)"/>
      </g>
     </g>
    </g>
    <g id="ytick_2">
     <g id="line2d_8">
      <g>
       <use xlink:href="#me0de6aee82" x="60.32" y="284.833895" style="stroke: #000000; stroke-width: 0.8"/>
      </g>
     </g>
     <g id="text_9">
      <!-- 0.005 -->
      <g transform="translate(24.691875 288.633114) scale(0.1 -0.1)">
       <defs>
        <path id="DejaVuSans-35" d="M 691 4666 
L 3169 4666 
L 3169 4134 
L 1269 4134 
L 1269 2991 
Q 1406 3038 1543 3061 
Q 1681 3084 1819 3084 
Q 2600 3084 3056 2656 
Q 3513 2228 3513 1497 
Q 3513 744 3044 326 
Q 2575 -91 1722 -91 
Q 1428 -91 1123 -41 
Q 819 9 494 109 
L 494 744 
Q 775 591 1075 516 
Q 1375 441 1709 441 
Q 2250 441 2565 725 
Q 2881 1009 2881 1497 
Q 2881 1984 2565 2268 
Q 2250 2553 1709 2553 
Q 1456 2553 1204 2497 
Q 953 2441 691 2322 
L 691 4666 
z
" transform="scale(0.015625)"/>
       </defs>
       <use xlink:href="#DejaVuSans-30"/>
       <use xlink:href="#DejaVuSans-2e" transform="translate(63.623047 0)"/>
       <use xlink:href="#DejaVuSans-30" transform="translate(95.410156 0)"/>
       <use xlink:href="#DejaVuSans-30" transform="translate(159.033203 0)"/>
       <use xlink:href="#DejaVuSans-35" transform="translate(222.65625 0)"/>
      </g>
     </g>
    </g>
    <g id="ytick_3">
     <g id="line2d_9">
      <g>
       <use xlink:href="#me0de6aee82" x="60.32" y="251.62779" style="stroke: #000000; stroke-width: 0.8"/>
      </g>
     </g>
     <g id="text_10">
      <!-- 0.010 -->
      <g transform="translate(24.691875 255.427009) scale(0.1 -0.1)">
       <use xlink:href="#DejaVuSans-30"/>
       <use xlink:href="#DejaVuSans-2e" transform="translate(63.623047 0)"/>
       <use xlink:href="#DejaVuSans-30" transform="translate(95.410156 0)"/>
       <use xlink:href="#DejaVuSans-31" transform="translate(159.033203 0)"/>
       <use xlink:href="#DejaVuSans-30" transform="translate(222.65625 0)"/>
      </g>
     </g>
    </g>
    <g id="ytick_4">
     <g id="line2d_10">
      <g>
       <use xlink:href="#me0de6aee82" x="60.32" y="218.421686" style="stroke: #000000; stroke-width: 0.8"/>
      </g>
     </g>
     <g id="text_11">
      <!-- 0.015 -->
      <g transform="translate(24.691875 222.220904) scale(0.1 -0.1)">
       <use xlink:href="#DejaVuSans-30"/>
       <use xlink:href="#DejaVuSans-2e" transform="translate(63.623047 0)"/>
       <use xlink:href="#DejaVuSans-30" transform="translate(95.410156 0)"/>
       <use xlink:href="#DejaVuSans-31" transform="translate(159.033203 0)"/>
       <use xlink:href="#DejaVuSans-35" transform="translate(222.65625 0)"/>
      </g>
     </g>
    </g>
    <g id="ytick_5">
     <g id="line2d_11">
      <g>
       <use xlink:href="#me0de6aee82" x="60.32" y="185.215581" style="stroke: #000000; stroke-width: 0.8"/>
      </g>
     </g>
     <g id="text_12">
      <!-- 0.020 -->
      <g transform="translate(24.691875 189.0148) scale(0.1 -0.1)">
       <use xlink:href="#DejaVuSans-30"/>
       <use xlink:href="#DejaVuSans-2e" transform="translate(63.623047 0)"/>
       <use xlink:href="#DejaVuSans-30" transform="translate(95.410156 0)"/>
       <use xlink:href="#DejaVuSans-32" transform="translate(159.033203 0)"/>
       <use xlink:href="#DejaVuSans-30" transform="translate(222.65625 0)"/>
      </g>
     </g>
    </g>
    <g id="ytick_6">
     <g id="line2d_12">
      <g>
       <use xlink:href="#me0de6aee82" x="60.32" y="152.009476" style="stroke: #000000; stroke-width: 0.8"/>
      </g>
     </g>
     <g id="text_13">
      <!-- 0.025 -->
      <g transform="translate(24.691875 155.808695) scale(0.1 -0.1)">
       <use xlink:href="#DejaVuSans-30"/>
       <use xlink:href="#DejaVuSans-2e" transform="translate(63.623047 0)"/>
       <use xlink:href="#DejaVuSans-30" transform="translate(95.410156 0)"/>
       <use xlink:href="#DejaVuSans-32" transform="translate(159.033203 0)"/>
       <use xlink:href="#DejaVuSans-35" transform="translate(222.65625 0)"/>
      </g>
     </g>
    </g>
    <g id="ytick_7">
     <g id="line2d_13">
      <g>
       <use xlink:href="#me0de6aee82" x="60.32" y="118.803371" style="stroke: #000000; stroke-width: 0.8"/>
      </g>
     </g>
     <g id="text_14">
      <!-- 0.030 -->
      <g transform="translate(24.691875 122.60259) scale(0.1 -0.1)">
       <defs>
        <path id="DejaVuSans-33" d="M 2597 2516 
Q 3050 2419 3304 2112 
Q 3559 1806 3559 1356 
Q 3559 666 3084 287 
Q 2609 -91 1734 -91 
Q 1441 -91 1130 -33 
Q 819 25 488 141 
L 488 750 
Q 750 597 1062 519 
Q 1375 441 1716 441 
Q 2309 441 2620 675 
Q 2931 909 2931 1356 
Q 2931 1769 2642 2001 
Q 2353 2234 1838 2234 
L 1294 2234 
L 1294 2753 
L 1863 2753 
Q 2328 2753 2575 2939 
Q 2822 3125 2822 3475 
Q 2822 3834 2567 4026 
Q 2313 4219 1838 4219 
Q 1578 4219 1281 4162 
Q 984 4106 628 3988 
L 628 4550 
Q 988 4650 1302 4700 
Q 1616 4750 1894 4750 
Q 2613 4750 3031 4423 
Q 3450 4097 3450 3541 
Q 3450 3153 3228 2886 
Q 3006 2619 2597 2516 
z
" transform="scale(0.015625)"/>
       </defs>
       <use xlink:href="#DejaVuSans-30"/>
       <use xlink:href="#DejaVuSans-2e" transform="translate(63.623047 0)"/>
       <use xlink:href="#DejaVuSans-30" transform="translate(95.410156 0)"/>
       <use xlink:href="#DejaVuSans-33" transform="translate(159.033203 0)"/>
       <use xlink:href="#DejaVuSans-30" transform="translate(222.65625 0)"/>
      </g>
     </g>
    </g>
    <g id="ytick_8">
     <g id="line2d_14">
      <g>
       <use xlink:href="#me0de6aee82" x="60.32" y="85.597267" style="stroke: #000000; stroke-width: 0.8"/>
      </g>
     </g>
     <g id="text_15">
      <!-- 0.035 -->
      <g transform="translate(24.691875 89.396485) scale(0.1 -0.1)">
       <use xlink:href="#DejaVuSans-30"/>
       <use xlink:href="#DejaVuSans-2e" transform="translate(63.623047 0)"/>
       <use xlink:href="#DejaVuSans-30" transform="translate(95.410156 0)"/>
       <use xlink:href="#DejaVuSans-33" transform="translate(159.033203 0)"/>
       <use xlink:href="#DejaVuSans-35" transform="translate(222.65625 0)"/>
      </g>
     </g>
    </g>
    <g id="ytick_9">
     <g id="line2d_15">
      <g>
       <use xlink:href="#me0de6aee82" x="60.32" y="52.391162" style="stroke: #000000; stroke-width: 0.8"/>
      </g>
     </g>
     <g id="text_16">
      <!-- 0.040 -->
      <g transform="translate(24.691875 56.190381) scale(0.1 -0.1)">
       <use xlink:href="#DejaVuSans-30"/>
       <use xlink:href="#DejaVuSans-2e" transform="translate(63.623047 0)"/>
       <use xlink:href="#DejaVuSans-30" transform="translate(95.410156 0)"/>
       <use xlink:href="#DejaVuSans-34" transform="translate(159.033203 0)"/>
       <use xlink:href="#DejaVuSans-30" transform="translate(222.65625 0)"/>
      </g>
     </g>
    </g>
    <g id="text_17">
     <!-- Number of brake events, total 479.0 -->
     <g transform="translate(18.612188 263.577188) rotate(-90) scale(0.1 -0.1)">
      <defs>
       <path id="DejaVuSans-4e" d="M 628 4666 
L 1478 4666 
L 3547 763 
L 3547 4666 
L 4159 4666 
L 4159 0 
L 3309 0 
L 1241 3903 
L 1241 0 
L 628 0 
L 628 4666 
z
" transform="scale(0.015625)"/>
       <path id="DejaVuSans-75" d="M 544 1381 
L 544 3500 
L 1119 3500 
L 1119 1403 
Q 1119 906 1312 657 
Q 1506 409 1894 409 
Q 2359 409 2629 706 
Q 2900 1003 2900 1516 
L 2900 3500 
L 3475 3500 
L 3475 0 
L 2900 0 
L 2900 538 
Q 2691 219 2414 64 
Q 2138 -91 1772 -91 
Q 1169 -91 856 284 
Q 544 659 544 1381 
z
M 1991 3584 
L 1991 3584 
z
" transform="scale(0.015625)"/>
       <path id="DejaVuSans-2c" d="M 750 794 
L 1409 794 
L 1409 256 
L 897 -744 
L 494 -744 
L 750 256 
L 750 794 
z
" transform="scale(0.015625)"/>
       <path id="DejaVuSans-6c" d="M 603 4863 
L 1178 4863 
L 1178 0 
L 603 0 
L 603 4863 
z
" transform="scale(0.015625)"/>
       <path id="DejaVuSans-37" d="M 525 4666 
L 3525 4666 
L 3525 4397 
L 1831 0 
L 1172 0 
L 2766 4134 
L 525 4134 
L 525 4666 
z
" transform="scale(0.015625)"/>
       <path id="DejaVuSans-39" d="M 703 97 
L 703 672 
Q 941 559 1184 500 
Q 1428 441 1663 441 
Q 2288 441 2617 861 
Q 2947 1281 2994 2138 
Q 2813 1869 2534 1725 
Q 2256 1581 1919 1581 
Q 1219 1581 811 2004 
Q 403 2428 403 3163 
Q 403 3881 828 4315 
Q 1253 4750 1959 4750 
Q 2769 4750 3195 4129 
Q 3622 3509 3622 2328 
Q 3622 1225 3098 567 
Q 2575 -91 1691 -91 
Q 1453 -91 1209 -44 
Q 966 3 703 97 
z
M 1959 2075 
Q 2384 2075 2632 2365 
Q 2881 2656 2881 3163 
Q 2881 3666 2632 3958 
Q 2384 4250 1959 4250 
Q 1534 4250 1286 3958 
Q 1038 3666 1038 3163 
Q 1038 2656 1286 2365 
Q 1534 2075 1959 2075 
z
" transform="scale(0.015625)"/>
      </defs>
      <use xlink:href="#DejaVuSans-4e"/>
      <use xlink:href="#DejaVuSans-75" transform="translate(74.804688 0)"/>
      <use xlink:href="#DejaVuSans-6d" transform="translate(138.183594 0)"/>
      <use xlink:href="#DejaVuSans-62" transform="translate(235.595703 0)"/>
      <use xlink:href="#DejaVuSans-65" transform="translate(299.072266 0)"/>
      <use xlink:href="#DejaVuSans-72" transform="translate(360.595703 0)"/>
      <use xlink:href="#DejaVuSans-20" transform="translate(401.708984 0)"/>
      <use xlink:href="#DejaVuSans-6f" transform="translate(433.496094 0)"/>
      <use xlink:href="#DejaVuSans-66" transform="translate(494.677734 0)"/>
      <use xlink:href="#DejaVuSans-20" transform="translate(529.882812 0)"/>
      <use xlink:href="#DejaVuSans-62" transform="translate(561.669922 0)"/>
      <use xlink:href="#DejaVuSans-72" transform="translate(625.146484 0)"/>
      <use xlink:href="#DejaVuSans-61" transform="translate(666.259766 0)"/>
      <use xlink:href="#DejaVuSans-6b" transform="translate(727.539062 0)"/>
      <use xlink:href="#DejaVuSans-65" transform="translate(781.824219 0)"/>
      <use xlink:href="#DejaVuSans-20" transform="translate(843.347656 0)"/>
      <use xlink:href="#DejaVuSans-65" transform="translate(875.134766 0)"/>
      <use xlink:href="#DejaVuSans-76" transform="translate(936.658203 0)"/>
      <use xlink:href="#DejaVuSans-65" transform="translate(995.837891 0)"/>
      <use xlink:href="#DejaVuSans-6e" transform="translate(1057.361328 0)"/>
      <use xlink:href="#DejaVuSans-74" transform="translate(1120.740234 0)"/>
      <use xlink:href="#DejaVuSans-73" transform="translate(1159.949219 0)"/>
      <use xlink:href="#DejaVuSans-2c" transform="translate(1212.048828 0)"/>
      <use xlink:href="#DejaVuSans-20" transform="translate(1243.835938 0)"/>
      <use xlink:href="#DejaVuSans-74" transform="translate(1275.623047 0)"/>
      <use xlink:href="#DejaVuSans-6f" transform="translate(1314.832031 0)"/>
      <use xlink:href="#DejaVuSans-74" transform="translate(1376.013672 0)"/>
      <use xlink:href="#DejaVuSans-61" transform="translate(1415.222656 0)"/>
      <use xlink:href="#DejaVuSans-6c" transform="translate(1476.501953 0)"/>
      <use xlink:href="#DejaVuSans-20" transform="translate(1504.285156 0)"/>
      <use xlink:href="#DejaVuSans-34" transform="translate(1536.072266 0)"/>
      <use xlink:href="#DejaVuSans-37" transform="translate(1599.695312 0)"/>
      <use xlink:href="#DejaVuSans-39" transform="translate(1663.318359 0)"/>
      <use xlink:href="#DejaVuSans-2e" transform="translate(1726.941406 0)"/>
      <use xlink:href="#DejaVuSans-30" transform="translate(1758.728516 0)"/>
     </g>
    </g>
   </g>
   <g id="patch_104">
    <path d="M 60.32 318.04 
L 60.32 26.88 
" style="fill: none; stroke: #000000; stroke-width: 0.8; stroke-linejoin: miter; stroke-linecap: square"/>
   </g>
   <g id="patch_105">
    <path d="M 565.2 318.04 
L 565.2 26.88 
" style="fill: none; stroke: #000000; stroke-width: 0.8; stroke-linejoin: miter; stroke-linecap: square"/>
   </g>
   <g id="patch_106">
    <path d="M 60.32 318.04 
L 565.2 318.04 
" style="fill: none; stroke: #000000; stroke-width: 0.8; stroke-linejoin: miter; stroke-linecap: square"/>
   </g>
   <g id="patch_107">
    <path d="M 60.32 26.88 
L 565.2 26.88 
" style="fill: none; stroke: #000000; stroke-width: 0.8; stroke-linejoin: miter; stroke-linecap: square"/>
   </g>
   <g id="text_18">
    <!-- Histogram of Brake Events Over Time (10-step bins) -->
    <g transform="translate(156.0025 20.88) scale(0.12 -0.12)">
     <defs>
      <path id="DejaVuSans-48" d="M 628 4666 
L 1259 4666 
L 1259 2753 
L 3553 2753 
L 3553 4666 
L 4184 4666 
L 4184 0 
L 3553 0 
L 3553 2222 
L 1259 2222 
L 1259 0 
L 628 0 
L 628 4666 
z
" transform="scale(0.015625)"/>
      <path id="DejaVuSans-67" d="M 2906 1791 
Q 2906 2416 2648 2759 
Q 2391 3103 1925 3103 
Q 1463 3103 1205 2759 
Q 947 2416 947 1791 
Q 947 1169 1205 825 
Q 1463 481 1925 481 
Q 2391 481 2648 825 
Q 2906 1169 2906 1791 
z
M 3481 434 
Q 3481 -459 3084 -895 
Q 2688 -1331 1869 -1331 
Q 1566 -1331 1297 -1286 
Q 1028 -1241 775 -1147 
L 775 -588 
Q 1028 -725 1275 -790 
Q 1522 -856 1778 -856 
Q 2344 -856 2625 -561 
Q 2906 -266 2906 331 
L 2906 616 
Q 2728 306 2450 153 
Q 2172 0 1784 0 
Q 1141 0 747 490 
Q 353 981 353 1791 
Q 353 2603 747 3093 
Q 1141 3584 1784 3584 
Q 2172 3584 2450 3431 
Q 2728 3278 2906 2969 
L 2906 3500 
L 3481 3500 
L 3481 434 
z
" transform="scale(0.015625)"/>
      <path id="DejaVuSans-42" d="M 1259 2228 
L 1259 519 
L 2272 519 
Q 2781 519 3026 730 
Q 3272 941 3272 1375 
Q 3272 1813 3026 2020 
Q 2781 2228 2272 2228 
L 1259 2228 
z
M 1259 4147 
L 1259 2741 
L 2194 2741 
Q 2656 2741 2882 2914 
Q 3109 3088 3109 3444 
Q 3109 3797 2882 3972 
Q 2656 4147 2194 4147 
L 1259 4147 
z
M 628 4666 
L 2241 4666 
Q 2963 4666 3353 4366 
Q 3744 4066 3744 3513 
Q 3744 3084 3544 2831 
Q 3344 2578 2956 2516 
Q 3422 2416 3680 2098 
Q 3938 1781 3938 1306 
Q 3938 681 3513 340 
Q 3088 0 2303 0 
L 628 0 
L 628 4666 
z
" transform="scale(0.015625)"/>
      <path id="DejaVuSans-45" d="M 628 4666 
L 3578 4666 
L 3578 4134 
L 1259 4134 
L 1259 2753 
L 3481 2753 
L 3481 2222 
L 1259 2222 
L 1259 531 
L 3634 531 
L 3634 0 
L 628 0 
L 628 4666 
z
" transform="scale(0.015625)"/>
      <path id="DejaVuSans-4f" d="M 2522 4238 
Q 1834 4238 1429 3725 
Q 1025 3213 1025 2328 
Q 1025 1447 1429 934 
Q 1834 422 2522 422 
Q 3209 422 3611 934 
Q 4013 1447 4013 2328 
Q 4013 3213 3611 3725 
Q 3209 4238 2522 4238 
z
M 2522 4750 
Q 3503 4750 4090 4092 
Q 4678 3434 4678 2328 
Q 4678 1225 4090 567 
Q 3503 -91 2522 -91 
Q 1538 -91 948 565 
Q 359 1222 359 2328 
Q 359 3434 948 4092 
Q 1538 4750 2522 4750 
z
" transform="scale(0.015625)"/>
      <path id="DejaVuSans-2d" d="M 313 2009 
L 1997 2009 
L 1997 1497 
L 313 1497 
L 313 2009 
z
" transform="scale(0.015625)"/>
     </defs>
     <use xlink:href="#DejaVuSans-48"/>
     <use xlink:href="#DejaVuSans-69" transform="translate(75.195312 0)"/>
     <use xlink:href="#DejaVuSans-73" transform="translate(102.978516 0)"/>
     <use xlink:href="#DejaVuSans-74" transform="translate(155.078125 0)"/>
     <use xlink:href="#DejaVuSans-6f" transform="translate(194.287109 0)"/>
     <use xlink:href="#DejaVuSans-67" transform="translate(255.46875 0)"/>
     <use xlink:href="#DejaVuSans-72" transform="translate(318.945312 0)"/>
     <use xlink:href="#DejaVuSans-61" transform="translate(360.058594 0)"/>
     <use xlink:href="#DejaVuSans-6d" transform="translate(421.337891 0)"/>
     <use xlink:href="#DejaVuSans-20" transform="translate(518.75 0)"/>
     <use xlink:href="#DejaVuSans-6f" transform="translate(550.537109 0)"/>
     <use xlink:href="#DejaVuSans-66" transform="translate(611.71875 0)"/>
     <use xlink:href="#DejaVuSans-20" transform="translate(646.923828 0)"/>
     <use xlink:href="#DejaVuSans-42" transform="translate(678.710938 0)"/>
     <use xlink:href="#DejaVuSans-72" transform="translate(747.314453 0)"/>
     <use xlink:href="#DejaVuSans-61" transform="translate(788.427734 0)"/>
     <use xlink:href="#DejaVuSans-6b" transform="translate(849.707031 0)"/>
     <use xlink:href="#DejaVuSans-65" transform="translate(903.992188 0)"/>
     <use xlink:href="#DejaVuSans-20" transform="translate(965.515625 0)"/>
     <use xlink:href="#DejaVuSans-45" transform="translate(997.302734 0)"/>
     <use xlink:href="#DejaVuSans-76" transform="translate(1060.486328 0)"/>
     <use xlink:href="#DejaVuSans-65" transform="translate(1119.666016 0)"/>
     <use xlink:href="#DejaVuSans-6e" transform="translate(1181.189453 0)"/>
     <use xlink:href="#DejaVuSans-74" transform="translate(1244.568359 0)"/>
     <use xlink:href="#DejaVuSans-73" transform="translate(1283.777344 0)"/>
     <use xlink:href="#DejaVuSans-20" transform="translate(1335.876953 0)"/>
     <use xlink:href="#DejaVuSans-4f" transform="translate(1367.664062 0)"/>
     <use xlink:href="#DejaVuSans-76" transform="translate(1446.375 0)"/>
     <use xlink:href="#DejaVuSans-65" transform="translate(1505.554688 0)"/>
     <use xlink:href="#DejaVuSans-72" transform="translate(1567.078125 0)"/>
     <use xlink:href="#DejaVuSans-20" transform="translate(1608.191406 0)"/>
     <use xlink:href="#DejaVuSans-54" transform="translate(1639.978516 0)"/>
     <use xlink:href="#DejaVuSans-69" transform="translate(1697.9375 0)"/>
     <use xlink:href="#DejaVuSans-6d" transform="translate(1725.720703 0)"/>
     <use xlink:href="#DejaVuSans-65" transform="translate(1823.132812 0)"/>
     <use xlink:href="#DejaVuSans-20" transform="translate(1884.65625 0)"/>
     <use xlink:href="#DejaVuSans-28" transform="translate(1916.443359 0)"/>
     <use xlink:href="#DejaVuSans-31" transform="translate(1955.457031 0)"/>
     <use xlink:href="#DejaVuSans-30" transform="translate(2019.080078 0)"/>
     <use xlink:href="#DejaVuSans-2d" transform="translate(2082.703125 0)"/>
     <use xlink:href="#DejaVuSans-73" transform="translate(2118.787109 0)"/>
     <use xlink:href="#DejaVuSans-74" transform="translate(2170.886719 0)"/>
     <use xlink:href="#DejaVuSans-65" transform="translate(2210.095703 0)"/>
     <use xlink:href="#DejaVuSans-70" transform="translate(2271.619141 0)"/>
     <use xlink:href="#DejaVuSans-20" transform="translate(2335.095703 0)"/>
     <use xlink:href="#DejaVuSans-62" transform="translate(2366.882812 0)"/>
     <use xlink:href="#DejaVuSans-69" transform="translate(2430.359375 0)"/>
     <use xlink:href="#DejaVuSans-6e" transform="translate(2458.142578 0)"/>
     <use xlink:href="#DejaVuSans-73" transform="translate(2521.521484 0)"/>
     <use xlink:href="#DejaVuSans-29" transform="translate(2573.621094 0)"/>
    </g>
   </g>
  </g>
 </g>
 <defs>
  <clipPath id="pdb94da6a7d">
   <rect x="60.32" y="26.88" width="504.88" height="291.16"/>
  </clipPath>
 </defs>
</svg>
